<mxfile>
    <diagram id="1aSmb7d5q1UaJmoChkNn" name="第 1 页">
        <mxGraphModel dx="654" dy="344" grid="1" gridSize="10" guides="1" tooltips="1" connect="1" arrows="1" fold="1" page="1" pageScale="1" pageWidth="1169" pageHeight="827" math="0" shadow="0">
            <root>
                <mxCell id="0"/>
                <mxCell id="1" parent="0"/>
                <mxCell id="38" value="" style="rounded=0;whiteSpace=wrap;html=1;strokeColor=#36393d;fillColor=#cce5ff;" vertex="1" parent="1">
                    <mxGeometry x="440" y="60" width="180" height="210" as="geometry"/>
                </mxCell>
                <mxCell id="26" value="" style="group" vertex="1" connectable="0" parent="1">
                    <mxGeometry x="460" y="80" width="140" height="130" as="geometry"/>
                </mxCell>
                <mxCell id="24" value="" style="verticalLabelPosition=bottom;verticalAlign=top;html=1;shape=mxgraph.basic.rect;fillColor2=none;strokeWidth=1;size=20;indent=5;strokeColor=#23445d;fillColor=#bac8d3;" vertex="1" parent="26">
                    <mxGeometry width="140" height="120" as="geometry"/>
                </mxCell>
                <mxCell id="15" value="&lt;font color=&quot;#000000&quot;&gt;CPU&lt;/font&gt;" style="text;html=1;align=center;verticalAlign=middle;resizable=0;points=[];autosize=1;" vertex="1" parent="26">
                    <mxGeometry width="40" height="20" as="geometry"/>
                </mxCell>
                <mxCell id="18" value="" style="group" vertex="1" connectable="0" parent="26">
                    <mxGeometry x="20" y="20" width="100" height="30" as="geometry"/>
                </mxCell>
                <mxCell id="16" value="" style="verticalLabelPosition=bottom;verticalAlign=top;html=1;shape=mxgraph.basic.rect;fillColor2=none;strokeWidth=1;size=20;indent=5;fillColor=#0e72cc;strokeColor=none;" vertex="1" parent="18">
                    <mxGeometry width="100" height="30" as="geometry"/>
                </mxCell>
                <mxCell id="17" value="控制单元" style="text;html=1;align=center;verticalAlign=middle;resizable=0;points=[];autosize=1;" vertex="1" parent="18">
                    <mxGeometry x="20" y="5" width="60" height="20" as="geometry"/>
                </mxCell>
                <mxCell id="25" value="" style="group" vertex="1" connectable="0" parent="26">
                    <mxGeometry x="20" y="70" width="100" height="30" as="geometry"/>
                </mxCell>
                <mxCell id="19" value="" style="group;fillColor=#6ca30f;" vertex="1" connectable="0" parent="25">
                    <mxGeometry width="100" height="30" as="geometry"/>
                </mxCell>
                <mxCell id="22" value="算术逻辑单元" style="text;html=1;align=center;verticalAlign=middle;resizable=0;points=[];autosize=1;" vertex="1" parent="25">
                    <mxGeometry x="5" y="5" width="90" height="20" as="geometry"/>
                </mxCell>
                <mxCell id="30" value="" style="endArrow=classic;html=1;strokeColor=#555555;strokeWidth=2;exitX=0.483;exitY=0.996;exitDx=0;exitDy=0;exitPerimeter=0;entryX=0.481;entryY=-0.136;entryDx=0;entryDy=0;entryPerimeter=0;" edge="1" parent="26" source="16" target="22">
                    <mxGeometry width="50" height="50" relative="1" as="geometry">
                        <mxPoint x="210" y="90" as="sourcePoint"/>
                        <mxPoint x="210" y="170" as="targetPoint"/>
                    </mxGeometry>
                </mxCell>
                <mxCell id="31" value="" style="endArrow=classic;startArrow=classic;html=1;strokeColor=#555555;strokeWidth=2;entryX=0.5;entryY=1.25;entryDx=0;entryDy=0;entryPerimeter=0;" edge="1" parent="1" target="22">
                    <mxGeometry width="50" height="50" relative="1" as="geometry">
                        <mxPoint x="530" y="210" as="sourcePoint"/>
                        <mxPoint x="520" y="180" as="targetPoint"/>
                    </mxGeometry>
                </mxCell>
                <mxCell id="33" value="" style="group" vertex="1" connectable="0" parent="1">
                    <mxGeometry x="480" y="211" width="110" height="30" as="geometry"/>
                </mxCell>
                <mxCell id="27" value="" style="verticalLabelPosition=bottom;verticalAlign=top;html=1;shape=mxgraph.basic.rect;fillColor2=none;strokeWidth=1;size=20;indent=5;strokeColor=none;fillColor=#f59311;" vertex="1" parent="33">
                    <mxGeometry width="100" height="30" as="geometry"/>
                </mxCell>
                <mxCell id="32" value="内存" style="text;html=1;align=center;verticalAlign=middle;resizable=0;points=[];autosize=1;" vertex="1" parent="33">
                    <mxGeometry x="30" y="5" width="40" height="20" as="geometry"/>
                </mxCell>
                <mxCell id="35" value="" style="group" vertex="1" connectable="0" parent="1">
                    <mxGeometry x="480" y="280" width="100" height="30" as="geometry"/>
                </mxCell>
                <mxCell id="36" value="" style="verticalLabelPosition=bottom;verticalAlign=top;html=1;shape=mxgraph.basic.rect;fillColor2=none;strokeWidth=1;size=20;indent=5;strokeColor=none;fillColor=#fa4343;" vertex="1" parent="35">
                    <mxGeometry width="100" height="30" as="geometry"/>
                </mxCell>
                <mxCell id="37" value="外部存储设备" style="text;html=1;align=center;verticalAlign=middle;resizable=0;points=[];autosize=1;" vertex="1" parent="35">
                    <mxGeometry x="5" y="5" width="90" height="20" as="geometry"/>
                </mxCell>
                <mxCell id="39" value="" style="edgeStyle=elbowEdgeStyle;elbow=horizontal;endArrow=classic;html=1;strokeColor=#555555;strokeWidth=2;entryX=0;entryY=0.667;entryDx=0;entryDy=0;entryPerimeter=0;" edge="1" parent="1" target="36">
                    <mxGeometry width="50" height="50" relative="1" as="geometry">
                        <mxPoint x="460" y="117" as="sourcePoint"/>
                        <mxPoint x="400" y="160" as="targetPoint"/>
                        <Array as="points">
                            <mxPoint x="450" y="210"/>
                        </Array>
                    </mxGeometry>
                </mxCell>
                <mxCell id="40" value="&lt;font color=&quot;#000000&quot;&gt;系统单元&lt;/font&gt;" style="text;html=1;align=center;verticalAlign=middle;resizable=0;points=[];autosize=1;" vertex="1" parent="1">
                    <mxGeometry x="500" y="60" width="60" height="20" as="geometry"/>
                </mxCell>
                <mxCell id="41" value="" style="shape=parallelogram;perimeter=parallelogramPerimeter;whiteSpace=wrap;html=1;fixedSize=1;fillColor=#16afcc;strokeColor=none;" vertex="1" parent="1">
                    <mxGeometry x="290" y="211" width="120" height="30" as="geometry"/>
                </mxCell>
                <mxCell id="42" value="" style="shape=parallelogram;perimeter=parallelogramPerimeter;whiteSpace=wrap;html=1;fixedSize=1;strokeColor=none;fillColor=#d12a6a;" vertex="1" parent="1">
                    <mxGeometry x="649" y="211" width="120" height="30" as="geometry"/>
                </mxCell>
                <mxCell id="43" value="" style="endArrow=classic;html=1;strokeColor=#555555;strokeWidth=2;entryX=-0.03;entryY=0.477;entryDx=0;entryDy=0;entryPerimeter=0;" edge="1" parent="1">
                    <mxGeometry width="50" height="50" relative="1" as="geometry">
                        <mxPoint x="450" y="220" as="sourcePoint"/>
                        <mxPoint x="477" y="220.31000000000006" as="targetPoint"/>
                    </mxGeometry>
                </mxCell>
                <mxCell id="44" value="" style="endArrow=classic;html=1;strokeColor=#555555;strokeWidth=2;exitX=1;exitY=0.5;exitDx=0;exitDy=0;entryX=-0.03;entryY=0.477;entryDx=0;entryDy=0;entryPerimeter=0;" edge="1" parent="1">
                    <mxGeometry width="50" height="50" relative="1" as="geometry">
                        <mxPoint x="580" y="226.35" as="sourcePoint"/>
                        <mxPoint x="657" y="225.66000000000005" as="targetPoint"/>
                    </mxGeometry>
                </mxCell>
                <mxCell id="45" value="" style="edgeStyle=elbowEdgeStyle;elbow=horizontal;endArrow=classic;html=1;strokeColor=#555555;strokeWidth=2;" edge="1" parent="1">
                    <mxGeometry width="50" height="50" relative="1" as="geometry">
                        <mxPoint x="460" y="116" as="sourcePoint"/>
                        <mxPoint x="350" y="207" as="targetPoint"/>
                        <Array as="points">
                            <mxPoint x="350" y="116"/>
                        </Array>
                    </mxGeometry>
                </mxCell>
                <mxCell id="46" value="输入单元" style="text;html=1;align=center;verticalAlign=middle;resizable=0;points=[];autosize=1;" vertex="1" parent="1">
                    <mxGeometry x="320" y="216" width="60" height="20" as="geometry"/>
                </mxCell>
                <mxCell id="47" value="输出单元" style="text;html=1;align=center;verticalAlign=middle;resizable=0;points=[];autosize=1;" vertex="1" parent="1">
                    <mxGeometry x="679" y="216" width="60" height="20" as="geometry"/>
                </mxCell>
                <mxCell id="50" value="" style="endArrow=classic;html=1;strokeColor=#555555;strokeWidth=2;comic=0;" edge="1" parent="1">
                    <mxGeometry relative="1" as="geometry">
                        <mxPoint x="400" y="230" as="sourcePoint"/>
                        <mxPoint x="480" y="230" as="targetPoint"/>
                        <Array as="points">
                            <mxPoint x="450" y="230"/>
                        </Array>
                    </mxGeometry>
                </mxCell>
            </root>
        </mxGraphModel>
    </diagram>
    <diagram id="SnZqMNq_WOnsJ4AuClRw" name="第 2 页">
        <mxGraphModel dx="977" dy="499" grid="1" gridSize="10" guides="1" tooltips="1" connect="1" arrows="1" fold="1" page="1" pageScale="1" pageWidth="1169" pageHeight="827" math="0" shadow="0">
            <root>
                <mxCell id="p4wDEHzbgGZraiTmspa_-0"/>
                <mxCell id="p4wDEHzbgGZraiTmspa_-1" parent="p4wDEHzbgGZraiTmspa_-0"/>
                <mxCell id="p4wDEHzbgGZraiTmspa_-7" value="" style="ellipse;whiteSpace=wrap;html=1;aspect=fixed;fontSize=15;fontColor=#000000;strokeColor=none;fillColor=#F89588;" vertex="1" parent="p4wDEHzbgGZraiTmspa_-1">
                    <mxGeometry x="270" y="100" width="276" height="276" as="geometry"/>
                </mxCell>
                <mxCell id="p4wDEHzbgGZraiTmspa_-5" value="" style="ellipse;whiteSpace=wrap;html=1;aspect=fixed;fontSize=15;fontColor=#000000;fillColor=#f8cb7f;strokeColor=none;" vertex="1" parent="p4wDEHzbgGZraiTmspa_-1">
                    <mxGeometry x="306.25" y="136.25" width="203.5" height="203.5" as="geometry"/>
                </mxCell>
                <mxCell id="p4wDEHzbgGZraiTmspa_-3" value="" style="ellipse;whiteSpace=wrap;html=1;aspect=fixed;fillColor=#76da91;strokeColor=none;" vertex="1" parent="p4wDEHzbgGZraiTmspa_-1">
                    <mxGeometry x="339" y="169" width="138" height="138" as="geometry"/>
                </mxCell>
                <mxCell id="p4wDEHzbgGZraiTmspa_-2" value="&lt;font color=&quot;#000000&quot; style=&quot;font-size: 15px&quot;&gt;硬件&lt;/font&gt;" style="ellipse;whiteSpace=wrap;html=1;aspect=fixed;strokeColor=none;fillColor=#63b2ee;" vertex="1" parent="p4wDEHzbgGZraiTmspa_-1">
                    <mxGeometry x="375" y="205" width="66" height="66" as="geometry"/>
                </mxCell>
                <mxCell id="p4wDEHzbgGZraiTmspa_-4" value="内核" style="text;html=1;align=center;verticalAlign=middle;resizable=0;points=[];autosize=1;fontSize=15;fontColor=#000000;" vertex="1" parent="p4wDEHzbgGZraiTmspa_-1">
                    <mxGeometry x="383" y="181" width="50" height="20" as="geometry"/>
                </mxCell>
                <mxCell id="p4wDEHzbgGZraiTmspa_-6" value="系统调用" style="text;html=1;align=center;verticalAlign=middle;resizable=0;points=[];autosize=1;fontSize=15;fontColor=#000000;" vertex="1" parent="p4wDEHzbgGZraiTmspa_-1">
                    <mxGeometry x="368" y="146" width="80" height="20" as="geometry"/>
                </mxCell>
                <mxCell id="p4wDEHzbgGZraiTmspa_-8" value="应用程序" style="text;html=1;align=center;verticalAlign=middle;resizable=0;points=[];autosize=1;fontSize=15;fontColor=#000000;" vertex="1" parent="p4wDEHzbgGZraiTmspa_-1">
                    <mxGeometry x="368" y="116.25" width="80" height="20" as="geometry"/>
                </mxCell>
            </root>
        </mxGraphModel>
    </diagram>
    <diagram id="JITI0VPVhJBHNCfLLBkR" name="第 3 页">
        <mxGraphModel dx="977" dy="499" grid="1" gridSize="10" guides="1" tooltips="1" connect="1" arrows="1" fold="1" page="1" pageScale="1" pageWidth="1169" pageHeight="827" math="0" shadow="0">
            <root>
                <mxCell id="KFMYNXUn4E5L9S6cocSg-0"/>
                <mxCell id="KFMYNXUn4E5L9S6cocSg-1" parent="KFMYNXUn4E5L9S6cocSg-0"/>
                <mxCell id="KFMYNXUn4E5L9S6cocSg-2" value="1969前" style="ellipse;whiteSpace=wrap;html=1;aspect=fixed;fontSize=15;fontColor=#000000;strokeColor=none;fillColor=#00a8e1;" vertex="1" parent="KFMYNXUn4E5L9S6cocSg-1">
                    <mxGeometry x="70" y="170" width="70" height="70" as="geometry"/>
                </mxCell>
                <mxCell id="KFMYNXUn4E5L9S6cocSg-3" value="&lt;h1 style=&quot;font-size: 20px&quot;&gt;&lt;font style=&quot;font-size: 20px&quot;&gt;Multics系统&lt;/font&gt;&lt;/h1&gt;&lt;div&gt;&lt;font style=&quot;font-size: 16px&quot;&gt;一个伟大的梦想，由Bell, MIT与GE开发&lt;/font&gt;&lt;/div&gt;" style="text;html=1;strokeColor=none;fillColor=none;spacing=5;spacingTop=-20;whiteSpace=wrap;overflow=hidden;rounded=0;fontSize=15;fontColor=#000000;" vertex="1" parent="KFMYNXUn4E5L9S6cocSg-1">
                    <mxGeometry x="40" y="240" width="190" height="120" as="geometry"/>
                </mxCell>
                <mxCell id="KFMYNXUn4E5L9S6cocSg-5" value="1969" style="ellipse;whiteSpace=wrap;html=1;aspect=fixed;fontSize=15;fontColor=#000000;strokeColor=none;fillColor=#99cc00;" vertex="1" parent="KFMYNXUn4E5L9S6cocSg-1">
                    <mxGeometry x="280" y="170" width="70" height="70" as="geometry"/>
                </mxCell>
                <mxCell id="KFMYNXUn4E5L9S6cocSg-6" value="&lt;h1 style=&quot;font-size: 20px&quot;&gt;File Server System&lt;/h1&gt;&lt;div&gt;&lt;span style=&quot;font-size: 16px&quot;&gt;由Ken Thompson开发，提出两个重要概念：&lt;/span&gt;&lt;/div&gt;&lt;div&gt;&lt;span style=&quot;font-size: 16px&quot;&gt;&amp;nbsp;- 所有程序或系统装置都是文件&lt;/span&gt;&lt;/div&gt;&lt;div&gt;&lt;span style=&quot;font-size: 16px&quot;&gt;&amp;nbsp;- 程序只有一个目的，即有效地完成目标&lt;/span&gt;&lt;/div&gt;" style="text;html=1;strokeColor=none;fillColor=none;spacing=5;spacingTop=-20;whiteSpace=wrap;overflow=hidden;rounded=0;fontSize=15;fontColor=#000000;" vertex="1" parent="KFMYNXUn4E5L9S6cocSg-1">
                    <mxGeometry x="230" y="240" width="230" height="170" as="geometry"/>
                </mxCell>
                <mxCell id="KFMYNXUn4E5L9S6cocSg-7" value="" style="endArrow=classic;html=1;strokeWidth=6;fontSize=15;fontColor=#000000;exitX=1;exitY=0.5;exitDx=0;exitDy=0;entryX=0;entryY=0.5;entryDx=0;entryDy=0;strokeColor=#9192ab;" edge="1" parent="KFMYNXUn4E5L9S6cocSg-1" source="KFMYNXUn4E5L9S6cocSg-2" target="KFMYNXUn4E5L9S6cocSg-5">
                    <mxGeometry width="50" height="50" relative="1" as="geometry">
                        <mxPoint x="170" y="230" as="sourcePoint"/>
                        <mxPoint x="220" y="180" as="targetPoint"/>
                    </mxGeometry>
                </mxCell>
                <mxCell id="KFMYNXUn4E5L9S6cocSg-8" value="1973" style="ellipse;whiteSpace=wrap;html=1;aspect=fixed;fontSize=15;fontColor=#000000;strokeColor=none;fillColor=#e30039;" vertex="1" parent="KFMYNXUn4E5L9S6cocSg-1">
                    <mxGeometry x="480" y="170" width="70" height="70" as="geometry"/>
                </mxCell>
                <mxCell id="KFMYNXUn4E5L9S6cocSg-9" value="&lt;h1 style=&quot;font-size: 20px&quot;&gt;UNIX内核&lt;/h1&gt;&lt;div&gt;&lt;span style=&quot;font-size: 16px&quot;&gt;Ritchie等人以C语言开发&lt;/span&gt;&lt;/div&gt;" style="text;html=1;strokeColor=none;fillColor=none;spacing=5;spacingTop=-20;whiteSpace=wrap;overflow=hidden;rounded=0;fontSize=15;fontColor=#000000;" vertex="1" parent="KFMYNXUn4E5L9S6cocSg-1">
                    <mxGeometry x="466" y="240" width="190" height="120" as="geometry"/>
                </mxCell>
                <mxCell id="KFMYNXUn4E5L9S6cocSg-10" value="" style="endArrow=classic;html=1;strokeWidth=6;fontSize=15;fontColor=#000000;entryX=0;entryY=0.5;entryDx=0;entryDy=0;strokeColor=#9192ab;exitX=1;exitY=0.5;exitDx=0;exitDy=0;" edge="1" parent="KFMYNXUn4E5L9S6cocSg-1" source="KFMYNXUn4E5L9S6cocSg-5" target="KFMYNXUn4E5L9S6cocSg-8">
                    <mxGeometry width="50" height="50" relative="1" as="geometry">
                        <mxPoint x="400" y="205" as="sourcePoint"/>
                        <mxPoint x="550" y="204.5" as="targetPoint"/>
                    </mxGeometry>
                </mxCell>
                <mxCell id="KFMYNXUn4E5L9S6cocSg-11" value="1977" style="ellipse;whiteSpace=wrap;html=1;aspect=fixed;fontSize=15;fontColor=#000000;strokeColor=none;fillColor=#fcd300;" vertex="1" parent="KFMYNXUn4E5L9S6cocSg-1">
                    <mxGeometry x="690" y="170" width="70" height="70" as="geometry"/>
                </mxCell>
                <mxCell id="KFMYNXUn4E5L9S6cocSg-12" value="&lt;h1 style=&quot;font-size: 20px&quot;&gt;UNIX分支－BSD诞生&lt;/h1&gt;&lt;div&gt;&lt;span style=&quot;font-size: 16px&quot;&gt;柏克莱大学Bill Joy开发&lt;/span&gt;&lt;/div&gt;" style="text;html=1;strokeColor=none;fillColor=none;spacing=5;spacingTop=-20;whiteSpace=wrap;overflow=hidden;rounded=0;fontSize=15;fontColor=#000000;" vertex="1" parent="KFMYNXUn4E5L9S6cocSg-1">
                    <mxGeometry x="670" y="240" width="200" height="120" as="geometry"/>
                </mxCell>
                <mxCell id="KFMYNXUn4E5L9S6cocSg-13" value="" style="endArrow=classic;html=1;strokeWidth=6;fontSize=15;fontColor=#000000;entryX=0;entryY=0.5;entryDx=0;entryDy=0;strokeColor=#9192ab;exitX=1;exitY=0.5;exitDx=0;exitDy=0;" edge="1" parent="KFMYNXUn4E5L9S6cocSg-1" target="KFMYNXUn4E5L9S6cocSg-11">
                    <mxGeometry width="50" height="50" relative="1" as="geometry">
                        <mxPoint x="550" y="204.5" as="sourcePoint"/>
                        <mxPoint x="680" y="204.5" as="targetPoint"/>
                    </mxGeometry>
                </mxCell>
                <mxCell id="KFMYNXUn4E5L9S6cocSg-14" value="1979" style="ellipse;whiteSpace=wrap;html=1;aspect=fixed;fontSize=15;fontColor=#000000;strokeColor=none;fillColor=#800080;" vertex="1" parent="KFMYNXUn4E5L9S6cocSg-1">
                    <mxGeometry x="720" y="402" width="70" height="70" as="geometry"/>
                </mxCell>
                <mxCell id="KFMYNXUn4E5L9S6cocSg-15" value="&lt;h1 style=&quot;font-size: 20px&quot;&gt;System V架构与版权声明&lt;/h1&gt;&lt;div&gt;&lt;br&gt;&lt;/div&gt;" style="text;html=1;strokeColor=none;fillColor=none;spacing=5;spacingTop=-20;whiteSpace=wrap;overflow=hidden;rounded=0;fontSize=15;fontColor=#000000;" vertex="1" parent="KFMYNXUn4E5L9S6cocSg-1">
                    <mxGeometry x="710" y="472" width="150" height="120" as="geometry"/>
                </mxCell>
                <mxCell id="KFMYNXUn4E5L9S6cocSg-16" value="" style="endArrow=classic;html=1;strokeWidth=6;fontSize=15;fontColor=#000000;entryX=1;entryY=0.5;entryDx=0;entryDy=0;strokeColor=#9192ab;exitX=0;exitY=0.5;exitDx=0;exitDy=0;" edge="1" parent="KFMYNXUn4E5L9S6cocSg-1" source="KFMYNXUn4E5L9S6cocSg-14" target="KFMYNXUn4E5L9S6cocSg-17">
                    <mxGeometry width="50" height="50" relative="1" as="geometry">
                        <mxPoint x="840" y="547.5" as="sourcePoint"/>
                        <mxPoint x="980" y="548" as="targetPoint"/>
                    </mxGeometry>
                </mxCell>
                <mxCell id="KFMYNXUn4E5L9S6cocSg-17" value="1984" style="ellipse;whiteSpace=wrap;html=1;aspect=fixed;fontSize=15;fontColor=#000000;strokeColor=none;fillColor=#00994e;" vertex="1" parent="KFMYNXUn4E5L9S6cocSg-1">
                    <mxGeometry x="480" y="400" width="70" height="70" as="geometry"/>
                </mxCell>
                <mxCell id="KFMYNXUn4E5L9S6cocSg-18" value="&lt;h1 style=&quot;font-size: 20px&quot;&gt;x86架构的Minix诞生&lt;/h1&gt;&lt;div&gt;&lt;span style=&quot;font-size: 16px&quot;&gt;Andrew Tanenbaum教授开发&lt;/span&gt;&lt;br&gt;&lt;/div&gt;&lt;div&gt;&lt;h1 style=&quot;font-size: 20px&quot;&gt;GNU项目与FSF基金会成立&lt;/h1&gt;&lt;/div&gt;&lt;div&gt;&lt;span style=&quot;font-size: 16px&quot;&gt;Richard Mathew Stallman发起&lt;/span&gt;&lt;/div&gt;" style="text;html=1;strokeColor=none;fillColor=none;spacing=5;spacingTop=-20;whiteSpace=wrap;overflow=hidden;rounded=0;fontSize=15;fontColor=#000000;" vertex="1" parent="KFMYNXUn4E5L9S6cocSg-1">
                    <mxGeometry x="450" y="472" width="250" height="156" as="geometry"/>
                </mxCell>
                <mxCell id="KFMYNXUn4E5L9S6cocSg-20" value="" style="edgeStyle=elbowEdgeStyle;elbow=horizontal;endArrow=classic;html=1;strokeColor=#9192ab;strokeWidth=6;fontSize=15;fontColor=#000000;exitX=1;exitY=0.5;exitDx=0;exitDy=0;entryX=1;entryY=0.5;entryDx=0;entryDy=0;" edge="1" parent="KFMYNXUn4E5L9S6cocSg-1" source="KFMYNXUn4E5L9S6cocSg-11" target="KFMYNXUn4E5L9S6cocSg-14">
                    <mxGeometry width="50" height="50" relative="1" as="geometry">
                        <mxPoint x="670" y="510" as="sourcePoint"/>
                        <mxPoint x="720" y="460" as="targetPoint"/>
                        <Array as="points">
                            <mxPoint x="890" y="350"/>
                        </Array>
                    </mxGeometry>
                </mxCell>
                <mxCell id="KFMYNXUn4E5L9S6cocSg-21" value="1988" style="ellipse;whiteSpace=wrap;html=1;aspect=fixed;fontSize=15;fontColor=#000000;strokeColor=none;fillColor=#ff6600;" vertex="1" parent="KFMYNXUn4E5L9S6cocSg-1">
                    <mxGeometry x="270" y="400" width="70" height="70" as="geometry"/>
                </mxCell>
                <mxCell id="KFMYNXUn4E5L9S6cocSg-22" value="&lt;h1 style=&quot;font-size: 20px&quot;&gt;图形接口XFree86项目&lt;/h1&gt;&lt;div&gt;&lt;br&gt;&lt;/div&gt;" style="text;html=1;strokeColor=none;fillColor=none;spacing=5;spacingTop=-20;whiteSpace=wrap;overflow=hidden;rounded=0;fontSize=15;fontColor=#000000;" vertex="1" parent="KFMYNXUn4E5L9S6cocSg-1">
                    <mxGeometry x="230" y="470" width="210" height="120" as="geometry"/>
                </mxCell>
                <mxCell id="KFMYNXUn4E5L9S6cocSg-23" value="" style="endArrow=classic;html=1;strokeWidth=6;fontSize=15;fontColor=#000000;strokeColor=#9192ab;entryX=1;entryY=0.5;entryDx=0;entryDy=0;" edge="1" parent="KFMYNXUn4E5L9S6cocSg-1" source="KFMYNXUn4E5L9S6cocSg-17" target="KFMYNXUn4E5L9S6cocSg-21">
                    <mxGeometry width="50" height="50" relative="1" as="geometry">
                        <mxPoint x="480" y="438" as="sourcePoint"/>
                        <mxPoint x="340" y="436" as="targetPoint"/>
                    </mxGeometry>
                </mxCell>
                <mxCell id="KFMYNXUn4E5L9S6cocSg-24" value="1991" style="ellipse;whiteSpace=wrap;html=1;aspect=fixed;fontSize=15;fontColor=#000000;strokeColor=none;fillColor=#808000;" vertex="1" parent="KFMYNXUn4E5L9S6cocSg-1">
                    <mxGeometry x="70" y="400" width="70" height="70" as="geometry"/>
                </mxCell>
                <mxCell id="KFMYNXUn4E5L9S6cocSg-25" value="&lt;h1 style=&quot;font-size: 20px&quot;&gt;Linux诞生&lt;/h1&gt;&lt;div&gt;&lt;span style=&quot;font-size: 16px&quot;&gt;赫尔辛基大学Linus Torvalds发布&lt;/span&gt;&lt;/div&gt;" style="text;html=1;strokeColor=none;fillColor=none;spacing=5;spacingTop=-20;whiteSpace=wrap;overflow=hidden;rounded=0;fontSize=15;fontColor=#000000;" vertex="1" parent="KFMYNXUn4E5L9S6cocSg-1">
                    <mxGeometry x="50" y="472" width="190" height="120" as="geometry"/>
                </mxCell>
                <mxCell id="KFMYNXUn4E5L9S6cocSg-26" value="" style="endArrow=classic;html=1;strokeWidth=6;fontSize=15;fontColor=#000000;strokeColor=#9192ab;exitX=0;exitY=0.5;exitDx=0;exitDy=0;" edge="1" parent="KFMYNXUn4E5L9S6cocSg-1" source="KFMYNXUn4E5L9S6cocSg-21">
                    <mxGeometry width="50" height="50" relative="1" as="geometry">
                        <mxPoint x="270" y="436.5" as="sourcePoint"/>
                        <mxPoint x="140" y="435" as="targetPoint"/>
                    </mxGeometry>
                </mxCell>
            </root>
        </mxGraphModel>
    </diagram>
</mxfile>